<svg width="43" height="43" viewBox="0 0 43 43" fill="none" xmlns="http://www.w3.org/2000/svg">
<path fill-rule="evenodd" clip-rule="evenodd" d="M21.5 43C33.3741 43 43 33.3741 43 21.5C43 9.62588 33.3741 0 21.5 0C9.62588 0 0 9.62588 0 21.5C0 33.3741 9.62588 43 21.5 43Z" fill="#2DD038"/>
<path fill-rule="evenodd" clip-rule="evenodd" d="M31 20.7682C31 25.6108 27.0442 29.5364 22.1636 29.5364C20.6142 29.5364 19.1586 29.1404 17.8922 28.4454L13 30L14.595 25.2956C13.7904 23.9744 13.327 22.4248 13.327 20.7682C13.327 15.9256 17.2832 12 22.1636 12C27.0446 12 31 15.9256 31 20.7682ZM22.1636 13.3964C18.0668 13.3964 14.7344 16.7034 14.7344 20.7682C14.7344 22.3812 15.2602 23.875 16.1496 25.0902L15.2214 27.828L18.0764 26.9206C19.2494 27.6908 20.6546 28.14 22.1638 28.14C26.26 28.14 29.593 24.8334 29.593 20.7686C29.593 16.7038 26.2602 13.3964 22.1636 13.3964ZM26.3279 22.5937C26.4794 22.6664 26.5818 22.7155 26.6258 22.7876C26.6796 22.8772 26.6796 23.3074 26.4996 23.8098C26.3184 24.3114 25.434 24.7954 25.0372 24.8312C24.9692 24.8374 24.9128 24.8509 24.855 24.8648C24.5754 24.9319 24.2628 25.0069 22.4378 24.294C20.4029 23.4987 19.0616 21.5247 18.7844 21.1167C18.7616 21.0832 18.746 21.0603 18.7378 21.0494L18.7374 21.0489C18.6275 20.9039 17.8534 19.8832 17.8534 18.8268C17.8534 17.8374 18.3432 17.3185 18.5687 17.0796C18.5842 17.0631 18.5984 17.048 18.6112 17.0342C18.8098 16.8192 19.0446 16.7654 19.189 16.7654C19.2636 16.7654 19.3383 16.7702 19.4105 16.7749C19.478 16.7792 19.5432 16.7834 19.6042 16.7834C19.6193 16.7834 19.6353 16.7824 19.6518 16.7813C19.7739 16.7734 19.9326 16.7632 20.0914 17.1418C20.1492 17.2797 20.2331 17.4821 20.3221 17.697C20.5108 18.1525 20.7227 18.6642 20.7594 18.7372C20.8138 18.845 20.85 18.9704 20.7774 19.1138C20.7671 19.1344 20.7575 19.1539 20.7484 19.1726C20.6938 19.2838 20.654 19.3648 20.561 19.4724C20.5251 19.514 20.4881 19.5587 20.451 19.6035C20.3762 19.6939 20.3013 19.7843 20.236 19.8488C20.1278 19.9558 20.0148 20.072 20.141 20.287C20.2674 20.5024 20.7022 21.2056 21.346 21.7752C22.0386 22.3879 22.6403 22.6469 22.945 22.7781C23.0043 22.8036 23.0523 22.8243 23.0876 22.8418C23.3044 22.9494 23.4306 22.9314 23.557 22.7876C23.6836 22.6442 24.0988 22.1604 24.243 21.9452C24.3872 21.7302 24.532 21.7662 24.7306 21.8378C24.9286 21.9092 25.9938 22.4294 26.2106 22.5368C26.2524 22.5576 26.2916 22.5763 26.3279 22.5937Z" fill="white"/>
</svg>
