<svg width="43" height="43" viewBox="0 0 43 43" fill="none" xmlns="http://www.w3.org/2000/svg">
<path fill-rule="evenodd" clip-rule="evenodd" d="M21.5 43C33.3741 43 43 33.3741 43 21.5C43 9.62588 33.3741 0 21.5 0C9.62588 0 0 9.62588 0 21.5C0 33.3741 9.62588 43 21.5 43Z" fill="#7B519D"/>
<path d="M29.0789 14.1256C27.4992 12.6531 24.9453 11.9397 21.4868 12.004C17.9995 12.0692 15.6684 12.6511 14.1508 13.8354C12.6834 14.9804 12 16.6558 12 19.1081V21.6108C12 24.5058 13.6317 27.6885 16.7501 28.1701C17.1101 28.2261 17.4493 27.9934 17.5078 27.651C17.5662 27.3088 17.3218 26.9863 16.9618 26.9307C14.5968 26.5654 13.3207 23.9172 13.3207 21.6108V19.1081C13.3207 15.5918 14.6911 13.3869 21.5127 13.2593C24.6053 13.201 26.8374 13.7946 28.1542 15.0221C29.1804 15.9788 29.6792 17.3153 29.6792 19.1081V21.6108C29.6792 25.4006 27.8901 27.0722 23.3011 27.5644H20.0472C19.872 27.5644 19.7041 27.6306 19.5803 27.7483L17.2875 29.9282C17.0296 30.1734 17.0296 30.5709 17.2875 30.8161C17.4164 30.9386 17.5854 31 17.7544 31C17.9233 31 18.0924 30.9387 18.2213 30.8161L20.3207 28.8201H23.338C23.3623 28.8201 23.3867 28.8188 23.4109 28.8162C26.0372 28.5389 27.8356 27.8891 29.0704 26.771C30.3688 25.5954 31 23.9075 31 21.6107V19.1081C31 16.9903 30.3537 15.314 29.0789 14.1256Z" fill="white"/>
<path d="M21.7488 15.9293C21.7489 15.9293 21.7489 15.9293 21.7491 15.9293C22.8788 15.9293 23.9409 16.3493 24.7398 17.1119C25.5388 17.8746 25.9788 18.8886 25.9787 19.9671C25.9787 20.3367 26.2925 20.6364 26.6797 20.6364C26.6798 20.6364 26.6798 20.6364 26.6798 20.6364C27.067 20.6364 27.3809 20.3368 27.3809 19.9672C27.381 18.5311 26.7952 17.181 25.7314 16.1655C24.6677 15.15 23.2535 14.5909 21.7491 14.5909C21.749 14.5909 21.7487 14.5909 21.7486 14.5909C21.3614 14.5909 21.0476 14.8906 21.0476 15.2602C21.0477 15.6297 21.3616 15.9293 21.7488 15.9293Z" fill="white"/>
<path d="M21.7035 18.4342C22.6138 18.4344 23.3546 19.1414 23.3547 20.0103C23.3548 20.3561 23.6484 20.6364 24.0108 20.6364C24.3731 20.6364 24.6667 20.3559 24.6667 20.0101C24.6664 18.4508 23.3373 17.1821 21.7037 17.1818H21.7036C21.3413 17.1818 21.0477 17.4621 21.0476 17.8079C21.0476 18.1537 21.3412 18.4342 21.7035 18.4342Z" fill="white"/>
<path d="M18.7897 19.2127C18.4932 19.4063 18.4171 19.7926 18.6198 20.0757C18.8225 20.3588 19.2274 20.4313 19.5239 20.2378C19.7572 20.0856 20.3034 19.7291 20.2651 19.0165C20.2408 18.5899 19.8377 17.9809 19.5039 17.5451C19.0156 16.9075 18.5948 16.5234 18.2557 16.4044C17.9392 16.2919 17.6081 16.2895 17.271 16.3974C16.5729 16.6219 16.0661 17.0277 15.8053 17.5708C15.5515 18.0995 15.5571 18.7071 15.8217 19.3283C16.4467 20.7918 17.3217 22.0732 18.4282 23.1422C19.5422 24.1927 20.8845 25.0279 22.4184 25.6248C22.7503 25.7537 23.0787 25.8182 23.3943 25.8182C23.697 25.8182 23.988 25.7589 24.2591 25.6403C24.8281 25.3913 25.2531 24.9076 25.4886 24.2404C25.6013 23.9194 25.5988 23.6035 25.4819 23.3034C25.3563 22.9775 24.9539 22.5759 24.2859 22.1098C23.8293 21.7911 23.1913 21.4064 22.7427 21.3831C21.9977 21.3474 21.6245 21.8679 21.4651 22.0905C21.2623 22.3735 21.3382 22.7599 21.6348 22.9536C21.9314 23.1472 22.3361 23.0747 22.539 22.7916C22.6097 22.6929 22.6501 22.648 22.6733 22.6284C23.0385 22.74 24.0797 23.4703 24.2671 23.7501C24.2717 23.768 24.2728 23.7952 24.2554 23.8448C24.1734 24.0774 24.0133 24.3818 23.7171 24.5114C23.4397 24.6326 23.1244 24.5583 22.9091 24.4747C21.5347 23.9398 20.3347 23.1943 19.348 22.264C18.3679 21.317 17.5868 20.1716 17.0268 18.8601C16.939 18.6541 16.8611 18.353 16.9881 18.0884C17.1239 17.8057 17.4429 17.6528 17.6857 17.5747C17.7376 17.5581 17.7661 17.559 17.7859 17.5636C18.0791 17.7428 18.8437 18.7362 18.9608 19.0848C18.9401 19.1066 18.8932 19.1452 18.7897 19.2127Z" fill="white"/>
</svg>
