<svg width="43" height="43" viewBox="0 0 43 43" fill="none" xmlns="http://www.w3.org/2000/svg">
<path fill-rule="evenodd" clip-rule="evenodd" d="M21.5 43C33.3741 43 43 33.3741 43 21.5C43 9.62588 33.3741 0 21.5 0C9.62588 0 0 9.62588 0 21.5C0 33.3741 9.62588 43 21.5 43Z" fill="#5BBAF0"/>
<path fill-rule="evenodd" clip-rule="evenodd" d="M15.9693 23.0958L12.2826 21.7129C11.9082 21.5719 11.9049 21.0407 12.2783 20.8959L27.4087 15.03C27.7295 14.9054 28.0604 15.1878 27.9906 15.5263L25.2753 28.6522C25.2113 28.9621 24.8498 29.1026 24.5946 28.9162L20.888 26.2118C20.6629 26.0475 20.3561 26.0563 20.1406 26.2327L18.0856 27.9164C17.847 28.1124 17.4876 28.0032 17.3963 27.7078L15.9693 23.0958ZM24.8005 18.0197L17.3563 22.3776C17.071 22.545 16.9366 22.8725 17.0288 23.1791L17.8337 25.8672C17.8908 26.0577 18.1817 26.0381 18.2094 25.8413L18.4187 24.3672C18.4582 24.0897 18.5975 23.834 18.8134 23.6429L24.9571 18.2149C25.072 18.1136 24.9343 17.9417 24.8005 18.0197Z" fill="white"/>
</svg>
